<svg xmlns="http://www.w3.org/2000/svg"  viewBox="0 0 48 48" width="48px" height="48px" baseProfile="basic"><linearGradient id="D2XJdRHPorVLtYBWsyyZIa" x1="-128.031" x2="-111.031" y1="-3.964" y2="13.036" gradientTransform="translate(146.987 11.007)" gradientUnits="userSpaceOnUse"><stop offset="0" stop-color="#dae4ed"/><stop offset="1" stop-color="#c2ccd5"/></linearGradient><path fill="url(#D2XJdRHPorVLtYBWsyyZIa)" d="M5.999,16.999V8.007c0-1.108,0.9-2.008,2.008-2.008	h31.988c1.108,0,2.008,0.9,2.008,2.008v0.045l-3,8.947l-16.483,4L5.999,16.999z"/><linearGradient id="D2XJdRHPorVLtYBWsyyZIb" x1="-131.443" x2="-113.873" y1="-5.303" y2="12.267" gradientTransform="translate(134.943 8.801)" gradientUnits="userSpaceOnUse"><stop offset="0" stop-color="#dae4ed"/><stop offset="1" stop-color="#c2ccd5"/></linearGradient><path fill="url(#D2XJdRHPorVLtYBWsyyZIb)" d="M5.999,27.999v-11h33.004v11l-22.002,4L5.999,27.999z"/><linearGradient id="D2XJdRHPorVLtYBWsyyZIc" x1="-135.05" x2="-120.049" y1="1.304" y2="16.303" gradientTransform="translate(134.993 17.751)" gradientUnits="userSpaceOnUse"><stop offset="0" stop-color="#fff"/><stop offset="1" stop-color="#999"/></linearGradient><path fill="url(#D2XJdRHPorVLtYBWsyyZIc)" d="M6.002,33.999l-0.003-6h11.776L6.002,33.999z"/><linearGradient id="D2XJdRHPorVLtYBWsyyZId" x1="-128.388" x2="-115.881" y1="-1.608" y2="10.899" gradientTransform="translate(145.47 18.524)" gradientUnits="userSpaceOnUse"><stop offset="0" stop-color="#33c481"/><stop offset="1" stop-color="#21a366"/></linearGradient><path fill="url(#D2XJdRHPorVLtYBWsyyZId)" d="M5.999,39.619v-5.816l9.003-10.804l9,4L42.004,8.051	v12.549l-4.001,18.399L5.999,39.619z"/><linearGradient id="D2XJdRHPorVLtYBWsyyZIe" x1="-129.726" x2="-117.217" y1="3.976" y2="16.485" gradientTransform="translate(151.861 24.869)" gradientUnits="userSpaceOnUse"><stop offset="0" stop-color="#97fcc9"/><stop offset="1" stop-color="#50d28d"/></linearGradient><path fill="url(#D2XJdRHPorVLtYBWsyyZIe)" d="M5.999,39.994v-0.376l9.003-7.619l9,3l18.002-14.4	v19.395c0,1.107-0.9,2.007-2.008,2.007H8.007C6.899,42.001,5.999,41.101,5.999,39.994z"/></svg>